<svg id="visual" viewBox="0 0 900 600" width="900" height="600" xmlns="http://www.w3.org/2000/svg" xmlns:xlink="http://www.w3.org/1999/xlink" version="1.1"><rect x="0" y="0" width="900" height="600" fill="#F6F1F1"></rect><path d="M0 392L21.5 389.8C43 387.7 86 383.3 128.8 388.7C171.7 394 214.3 409 257.2 411.2C300 413.3 343 402.7 385.8 406.2C428.7 409.7 471.3 427.3 514.2 423.3C557 419.3 600 393.7 642.8 382.7C685.7 371.7 728.3 375.3 771.2 383.8C814 392.3 857 405.7 878.5 412.3L900 419L900 601L878.5 601C857 601 814 601 771.2 601C728.3 601 685.7 601 642.8 601C600 601 557 601 514.2 601C471.3 601 428.7 601 385.8 601C343 601 300 601 257.2 601C214.3 601 171.7 601 128.8 601C86 601 43 601 21.5 601L0 601Z" fill="#7ab9d4"></path><path d="M0 460L21.5 454.5C43 449 86 438 128.8 430.2C171.7 422.3 214.3 417.7 257.2 422.2C300 426.7 343 440.3 385.8 437.5C428.7 434.7 471.3 415.3 514.2 406.8C557 398.3 600 400.7 642.8 413.7C685.7 426.7 728.3 450.3 771.2 449.8C814 449.3 857 424.7 878.5 412.3L900 400L900 601L878.5 601C857 601 814 601 771.2 601C728.3 601 685.7 601 642.8 601C600 601 557 601 514.2 601C471.3 601 428.7 601 385.8 601C343 601 300 601 257.2 601C214.3 601 171.7 601 128.8 601C86 601 43 601 21.5 601L0 601Z" fill="#6ab4d3"></path><path d="M0 454L21.5 451.5C43 449 86 444 128.8 450C171.7 456 214.3 473 257.2 479.8C300 486.7 343 483.3 385.8 476.2C428.7 469 471.3 458 514.2 451.5C557 445 600 443 642.8 447.2C685.7 451.3 728.3 461.7 771.2 472C814 482.3 857 492.7 878.5 497.8L900 503L900 601L878.5 601C857 601 814 601 771.2 601C728.3 601 685.7 601 642.8 601C600 601 557 601 514.2 601C471.3 601 428.7 601 385.8 601C343 601 300 601 257.2 601C214.3 601 171.7 601 128.8 601C86 601 43 601 21.5 601L0 601Z" fill="#57b0d1"></path><path d="M0 541L21.5 533.3C43 525.7 86 510.3 128.8 503C171.7 495.7 214.3 496.3 257.2 500C300 503.7 343 510.3 385.8 517.3C428.7 524.3 471.3 531.7 514.2 526C557 520.3 600 501.7 642.8 499.5C685.7 497.3 728.3 511.7 771.2 516.3C814 521 857 516 878.5 513.5L900 511L900 601L878.5 601C857 601 814 601 771.2 601C728.3 601 685.7 601 642.8 601C600 601 557 601 514.2 601C471.3 601 428.7 601 385.8 601C343 601 300 601 257.2 601C214.3 601 171.7 601 128.8 601C86 601 43 601 21.5 601L0 601Z" fill="#40abd0"></path><path d="M0 528L21.5 531C43 534 86 540 128.8 541.8C171.7 543.7 214.3 541.3 257.2 538.5C300 535.7 343 532.3 385.8 536C428.7 539.7 471.3 550.3 514.2 556.2C557 562 600 563 642.8 563.5C685.7 564 728.3 564 771.2 562.5C814 561 857 558 878.5 556.5L900 555L900 601L878.5 601C857 601 814 601 771.2 601C728.3 601 685.7 601 642.8 601C600 601 557 601 514.2 601C471.3 601 428.7 601 385.8 601C343 601 300 601 257.2 601C214.3 601 171.7 601 128.8 601C86 601 43 601 21.5 601L0 601Z" fill="#19a7ce"></path></svg>